<?xml version="1.0" standalone="no"?>
<!DOCTYPE svg PUBLIC "-//W3C//DTD SVG 1.1//EN" "http://www.w3.org/Graphics/SVG/1.1/DTD/svg11.dtd">
<svg xmlns="http://www.w3.org/2000/svg">
<metadata>Copyright (C) 2017 by original authors @ fontello.com</metadata>
<defs>
<font id="openshutters" horiz-adv-x="1000" >
<font-face font-family="openshutters" font-weight="400" font-stretch="normal" units-per-em="1000" ascent="850" descent="-150" />
<missing-glyph horiz-adv-x="1000" />
<glyph glyph-name="facebook" unicode="&#xe800;" d="M386-132h-175c-11 0-18 7-18 18v468h-157c-11 0-18 7-18 17v133c0 10 7 17 18 17h143c0 100 14 140 14 143 46 179 228 172 228 172l147 0c11 0 18-7 18-18v-136c0-11-7-18-18-18h-72c-67 0-92-43-92-82v-61h157c10 0 18-7 18-17v-129c0-11-8-18-18-18h-157v-471c0-11-8-18-18-18z m-157 36h139v467c0 11 7 18 18 18h157v93h-157c-11 0-18 7-18 18v79c0 57 39 117 128 117h54v100h-132c-7 0-154 8-193-142 0-4-14-47-14-150 0-4 0-11-4-15-3-3-7-3-14-3h-139v-93h157c10 0 18-7 18-18v-471z" horiz-adv-x="607" />

<glyph glyph-name="instagram" unicode="&#xe801;" d="M500-132c-125 0-143 0-193 3-46 4-82 11-118 22-32 11-64 32-89 57-25 25-43 54-57 89-14 36-22 72-22 118-3 50-3 68-3 193 0 125 0 143 3 193 4 46 11 82 22 118 11 32 32 64 57 89 25 25 54 46 89 57 36 14 72 22 118 22 50 3 68 3 193 3 125 0 143 0 193-3 46-4 82-11 118-22 32-11 64-32 89-57 25-25 46-54 57-89 14-36 22-72 22-118 3-50 3-68 3-193s0-143-3-193c-4-46-11-82-22-118-11-32-32-64-57-89-25-25-54-46-89-57-36-14-72-22-118-22-50-3-68-3-193-3z m0 928c-125 0-143 0-189-3-43-4-75-7-107-22-29-7-58-25-79-46-21-21-39-50-46-79-11-32-18-64-22-107-3-46-3-64-3-189 0-125 0-143 3-189 4-43 7-75 22-107 10-29 28-54 50-75 21-22 46-40 75-50 32-11 64-18 107-22 50-3 68-3 189-3 125 0 139 0 189 3 43 4 75 7 107 22 29 10 54 28 75 50 22 21 40 46 50 75 11 32 18 64 22 107 3 50 3 64 3 189 0 125 0 143-3 189-4 43-7 75-22 107-10 29-28 54-50 75-21 22-46 40-75 50-32 11-64 18-107 22-46 3-64 3-189 3z m0-703c-139 0-257 114-257 257 0 139 114 257 257 257l0 0c0 0 0 0 0 0 68 0 132-25 182-75 50-50 75-111 75-182 0-139-118-257-257-257z m0 478l0 0c-121 0-221-100-221-221s100-221 221-221c121 0 221 100 221 221 0 121-100 221-221 221z m307 29c0-32-25-57-57-57-32 0-57 25-57 57 0 0 0 0 0 0 0 32 25 57 57 57 32 0 57-25 57-57" horiz-adv-x="1000" />

<glyph glyph-name="linkedin" unicode="&#xe802;" d="M900-136h-797c-48 0-86 38-86 86v797c0 48 38 86 86 86h797c48 0 86-38 86-86v-800c0-45-38-83-86-83z m-797 934c-27 0-51-24-51-51v-800c0-28 24-52 51-52h797c28 0 52 24 52 52v800c0 27-24 51-52 51h-797z m745-796h-172v234c0 69-7 100-55 100-49 0-66-27-66-96v-238h-172v479h169v-31c27 24 65 41 117 41 162 0 183-117 183-231v-258z m-138 34h104v228c0 121-24 196-148 196-63 0-100-34-118-62l-3-10h-28l-3 17v45h-100v-410h103v203c0 35 0 131 100 131 90 0 90-89 90-134v-204z m-382-34h-173v479h173v-479z m-138 34h103v411h-103v-411z m51 473c-55 0-96 44-96 96s45 100 96 100 97-45 97-96-41-100-97-100z m0 162c-34 0-62-28-62-62s28-66 62-66 62 28 62 62-27 66-62 66z" horiz-adv-x="1000" />

<glyph glyph-name="arrow-left" unicode="&#xe803;" d="M32 343l300 300c10 9 26 9 36 0s9-26 0-36l-258-257h815c14 0 25-11 25-25s-11-25-25-25h-815l258-257c9-10 9-26 0-36-5-4-12-7-18-7s-13 3-18 7l-300 300c-9 10-9 26 0 36z" horiz-adv-x="1000" />

<glyph glyph-name="bubble" unicode="&#xe804;" d="M25-100c-11 0-21 7-24 18s2 23 11 28c85 51 120 125 132 159-92 71-144 168-144 270 0 52 13 101 38 148 25 45 59 85 103 119 90 70 208 108 334 108s244-38 334-108c44-34 78-74 103-119 25-47 38-96 38-148s-13-101-38-148c-25-45-59-85-103-119-90-70-208-108-334-108-52 0-102 6-151 19-21-14-61-39-109-63-75-37-138-56-190-56z m450 800c-234 0-425-146-425-325 0-91 50-178 138-240 8-6 12-16 10-26-6-22-26-82-79-140 65 23 135 62 187 98 6 4 13 6 21 4 47-14 97-21 148-21 234 0 425 146 425 325s-191 325-425 325z" horiz-adv-x="1000" />

<glyph glyph-name="chevron-down" unicode="&#xe805;" d="M0 550c0 6 3 13 7 18 10 10 26 10 36 0l432-433 432 433c10 9 26 9 36 0s9-26 0-36l-450-450c-10-9-26-9-36 0l-450 450c-5 5-7 12-7 18z" horiz-adv-x="1000" />

<glyph glyph-name="chevron-left" unicode="&#xe806;" d="M700-150c6 0 13 2 18 7 9 10 9 26 0 36l-433 432 433 432c9 10 9 26 0 36s-26 9-36 0l-450-450c-9-10-9-26 0-36l450-450c5-5 12-7 18-7z" horiz-adv-x="1000" />

<glyph glyph-name="chevron-right" unicode="&#xe807;" d="M250-150c-6 0-13 2-18 7-9 10-9 26 0 36l433 432-433 432c-9 10-9 26 0 36s26 9 36 0l450-450c9-10 9-26 0-36l-450-450c-5-5-12-7-18-7z" horiz-adv-x="1000" />

<glyph glyph-name="chevron-up" unicode="&#xe808;" d="M0 100c0-6 3-13 7-18 10-9 26-9 36 0l432 433 432-433c10-9 26-9 36 0s9 26 0 36l-450 450c-10 9-26 9-36 0l-450-450c-5-5-7-12-7-18z" horiz-adv-x="1000" />

<glyph glyph-name="cog" unicode="&#xe809;" d="M382-135c-2 0-5 0-7 1-45 11-88 29-128 53-11 6-16 21-9 33 8 15 12 31 12 48 0 55-45 100-100 100-17 0-33-4-48-12-12-7-27-2-33 9-24 40-42 84-53 128-4 13 4 26 16 30 41 14 68 52 68 95s-27 81-68 95c-12 4-20 17-16 30 11 45 29 88 53 128 6 12 21 16 33 9 15-8 31-12 48-12 55 0 100 45 100 100 0 17-4 33-12 48-7 12-2 27 9 33 40 24 83 42 128 53 13 4 26-3 30-16 14-41 52-68 95-68s81 27 95 68c4 13 17 20 30 16 45-11 88-29 128-53 12-6 16-21 9-33-8-15-12-31-12-48 0-55 45-100 100-100 17 0 33 4 48 12 12 7 27 3 33-9 24-40 42-83 53-128 4-13-3-26-16-30-41-14-68-52-68-95s27-81 68-95c13-4 20-17 16-30-11-44-29-88-53-128-6-11-21-16-33-9-15 8-31 12-48 12-55 0-100-45-100-100 0-17 4-33 12-48 7-12 3-27-9-33-40-24-83-42-128-53-13-4-26 3-30 16-14 41-52 68-95 68s-81-27-95-68c-3-10-13-17-23-17z m118 135c56 0 107-31 133-80 26 8 51 18 75 31-5 16-8 32-8 49 0 83 67 150 150 150 17 0 33-3 49-8 13 24 23 49 31 75-49 26-80 77-80 133s31 107 80 133c-8 26-18 51-31 75-16-5-32-8-49-8-83 0-150 67-150 150 0 17 3 33 8 49-24 13-49 23-75 31-26-48-77-80-133-80s-107 32-133 80c-26-8-51-18-75-31 5-16 8-32 8-49 0-83-67-150-150-150-17 0-33 3-49 8-13-24-23-49-31-75 49-26 80-77 80-133s-31-107-80-133c8-26 18-51 31-75 16 5 32 8 49 8 83 0 150-67 150-150 0-17-3-33-8-49 24-13 49-23 75-31 26 49 77 80 133 80z m0 200c-83 0-150 67-150 150s67 150 150 150 150-67 150-150-67-150-150-150z m0 250c-55 0-100-45-100-100s45-100 100-100c55 0 100 45 100 100s-45 100-100 100z" horiz-adv-x="1000" />

<glyph glyph-name="cross" unicode="&#xe80a;" d="M535 325l283 282c9 10 9 26 0 36s-26 9-36 0l-282-283-282 283c-10 9-26 9-36 0s-9-26 0-36l283-282-283-282c-9-10-9-26 0-36 5-5 12-7 18-7s13 3 18 7l282 283 282-283c5-5 12-7 18-7s13 3 18 7c10 10 10 26 0 36l-283 282z" horiz-adv-x="1000" />

<glyph glyph-name="envelope" unicode="&#xe80b;" d="M875 550h-800c-41 0-75-34-75-75v-450c0-41 34-75 75-75h800c41 0 75 34 75 75v450c0 41-34 75-75 75z m0-50c2 0 3 0 4 0l-376-251c-15-10-41-10-56 0l-376 251c1 0 3 0 4 0h800z m0-500h-800c-14 0-25 11-25 25v428l370-246c15-10 35-16 55-16s40 6 56 16l369 246v-428c0-14-11-25-25-25z" horiz-adv-x="1000" />

<glyph glyph-name="funnel" unicode="&#xe80c;" d="M812 685c-20 13-48 25-83 35-68 19-158 30-254 30s-186-11-254-30c-35-10-63-22-82-35-32-22-39-45-39-60v-25c0-21 16-57 32-80l245-367c12-19 23-55 23-78v-150c0-9 5-17 12-21 4-3 8-4 13-4 4 0 8 1 11 3l100 50c9 4 14 12 14 22v100c0 23 11 59 24 78l244 367c16 23 32 59 32 80v25c0 15-7 38-38 60z m-578-13c64 18 150 28 241 28s177-10 241-28c69-20 84-41 84-47s-15-27-84-47c-64-18-150-28-241-28s-177 10-241 28c-68 20-84 41-84 47s16 27 84 47z m298-491c-18-27-32-74-32-106v-85l-50-25v110c0 32-14 79-32 106l-244 365c14-5 29-11 47-16 68-19 158-30 254-30s186 11 254 30c18 5 33 11 47 17l-244-366z" horiz-adv-x="1000" />

<glyph glyph-name="lock" unicode="&#xe80d;" d="M725 450h-25v75c0 124-101 225-225 225s-225-101-225-225v-75h-25c-41 0-75-34-75-75v-400c0-41 34-75 75-75h500c41 0 75 34 75 75v400c0 41-34 75-75 75z m-425 75c0 97 79 175 175 175s175-78 175-175v-75h-350v75z m450-550c0-14-11-25-25-25h-500c-14 0-25 11-25 25v400c0 14 11 25 25 25h500c14 0 25-11 25-25v-400z" horiz-adv-x="1000" />

<glyph glyph-name="magnifier" unicode="&#xe80e;" d="M944-108l-298 324c67 70 104 162 104 259 0 100-39 194-110 265s-165 110-265 110-194-39-265-110-110-165-110-265 39-194 110-265 165-110 265-110c86 0 168 29 235 82l297-324c5-5 11-8 18-8 6 0 12 2 17 6 10 10 11 26 2 36z m-894 583c0 179 146 325 325 325s325-146 325-325-146-325-325-325-325 146-325 325z" horiz-adv-x="1000" />

<glyph glyph-name="menu" unicode="&#xe80f;" d="M875 550h-750c-14 0-25 11-25 25s11 25 25 25h750c14 0 25-11 25-25s-11-25-25-25z m0-250h-750c-14 0-25 11-25 25s11 25 25 25h750c14 0 25-11 25-25s-11-25-25-25z m0-250h-750c-14 0-25 11-25 25s11 25 25 25h750c14 0 25-11 25-25s-11-25-25-25z" horiz-adv-x="1000" />

<glyph glyph-name="printer" unicode="&#xe810;" d="M925 650h-75v125c0 41-34 75-75 75h-550c-41 0-75-34-75-75v-125h-75c-41 0-75-34-75-75v-450c0-41 34-75 75-75h75v-125c0-41 34-75 75-75h550c41 0 75 34 75 75v125h75c41 0 75 34 75 75v450c0 41-34 75-75 75z m-725 125c0 14 11 25 25 25h550c14 0 25-11 25-25v-125h-600v125z m575-875h-550c-14 0-25 11-25 25v325h600v-325c0-14-11-25-25-25z m175 225c0-14-11-25-25-25h-75v150h25c14 0 25 11 25 25s-11 25-25 25h-750c-14 0-25-11-25-25s11-25 25-25h25v-150h-75c-14 0-25 11-25 25v450c0 14 11 25 25 25h850c14 0 25-11 25-25v-450z m-225 25h-450c-14 0-25 11-25 25s11 25 25 25h450c14 0 25-11 25-25s-11-25-25-25z m0-100h-450c-14 0-25 11-25 25s11 25 25 25h450c14 0 25-11 25-25s-11-25-25-25z m0-100h-450c-14 0-25 11-25 25s11 25 25 25h450c14 0 25-11 25-25s-11-25-25-25z m100 450c-41 0-75 34-75 75s34 75 75 75 75-34 75-75-34-75-75-75z m0 100c-14 0-25-11-25-25s11-25 25-25 25 11 25 25-11 25-25 25z" horiz-adv-x="1000" />

<glyph glyph-name="pin" unicode="&#xe811;" d="M900 510l-265 265c-9 9-22 15-35 15s-26-6-35-15l-15-15c-14-14-25-39-25-60v-50c0-7-5-20-10-25l-140-140c-5-5-18-10-25-10h-50c-20 0-46-10-60-25l-15-15c-19-19-19-51 0-70l78-78-248-322c-7-10-7-24 2-33 5-5 12-7 18-7 5 0 11 2 15 5l322 248 78-78c9-9 22-14 35-14s26 5 35 14l15 15c15 14 25 40 25 60v50c0 7 5 20 10 25l140 140c5 5 18 10 25 10h50c21 0 46 11 60 25l15 15c9 9 15 22 15 35s-6 26-15 35z m-688-423l126 164 38-38-164-126z m638 373c-5-5-18-10-25-10h-50c-20 0-46-10-60-25l-140-140c-14-14-25-39-25-60v-50c0-7-5-20-10-25l-15-15c0 0 0 0 0 0v0l-265 265 15 15c5 5 18 10 25 10h50c21 0 46 11 60 25l140 140c15 14 25 40 25 60v50c0 7 5 20 10 25l15 15 265-265-15-15z" horiz-adv-x="1000" />

<glyph glyph-name="dart" unicode="&#xe812;" d="M1044 837l0 0c0 4 0 4-5 4 0 0 0 0 0 0 0 0 0 0 0 0 0 0 0 0-4 5 0 0 0 0 0 0 0 0 0 0 0 0h0c-5 0-5 0-9 0l0 0c0 0 0 0 0 0 0 0 0 0-4 0l-1009-544c-9-4-9-13-9-22 0-8 9-13 18-13l413 0 0-356c0-9 4-13 9-18 4-4 13 0 17 5l213 196 235-227c4-4 8-4 13-4 0 0 4 0 4 0 4 4 9 9 13 13l105 952v0c0 5 0 9 0 9z m-600-535l-353 0 826 448-473-448z m21-352l0 326 409 387-330-430c-5-9-5-18 0-22l100-96-179-165z m439-35l-321 313 417 544-96-857z" horiz-adv-x="1043" />

<glyph glyph-name="pinterest" unicode="&#xe813;" d="M500-133c-50 0-97 6-143 20l-7 3 0 0-13 3 0 0-14 7c-186 73-306 250-306 450 0 267 216 483 483 483s483-216 483-483c0-267-216-483-483-483z m-113 46c36-10 73-13 113-13 247 0 450 203 450 450s-203 450-450 450c-247 0-450-203-450-450 0-177 100-333 260-407-3 37-3 80 3 110 7 34 47 194 54 227-4 10-14 37-14 70 0 73 44 130 100 130 47 0 77-33 77-83 0-27-10-64-23-100-7-20-14-40-17-60-3-17 0-34 10-44 10-13 27-20 43-20 77 0 130 84 130 197 0 103-73 173-176 173-127 0-194-96-194-186 0-40 17-77 30-97 7-7 10-17 7-27l-10-50c-3-10-10-16-13-20-7-3-17-3-27 0-67 30-103 124-103 197 0 143 103 300 326 300 174 0 304-123 304-287 0-173-110-306-260-306-37 0-74 13-100 33-7-27-17-67-20-80-10-33-30-73-50-107z m70 534c-37 0-67-44-67-97 0-37 13-60 13-63l4-7 0-7c0 0-47-196-54-233-6-30-6-73 0-127l0-6 0 0c17 26 47 76 57 116 7 24 30 110 30 110l10 40 20-36c10-24 50-44 93-44 130 0 227 117 227 274 0 143-117 253-270 253-200 0-293-137-293-267 0-60 30-136 80-163l10 47c-24 26-40 73-40 116 0 107 80 220 226 220 124 0 210-83 210-206 0-134-70-230-163-230-27 0-53 13-70 33-17 20-20 47-17 73 4 20 10 40 17 64 10 33 20 66 20 90 0 16-3 50-43 50z" horiz-adv-x="1000" />

<glyph glyph-name="twitter" unicode="&#xe814;" d="M374-91c-100 0-237 19-355 108-8 3-8 15-8 22 4 7 11 11 19 11 0 0 170-30 281 63-52 11-141 48-178 159-3 8 0 11 4 19 11 3 19 3 22 3 4 0 8 0 15-3-52 33-115 92-111 211 0 7 4 11 11 15 8 3 15 3 19 0 3-4 14-11 29-15-44 52-100 155-29 274 3 4 7 7 14 7 8 0 12-3 15-7 4-4 193-226 426-226-7 56 0 111 30 159 33 56 85 93 144 111 82 23 163-3 222-59 49 0 93 15 134 45 11 7 15 7 22 7 7-4 11-11 11-15 0-4 0-41-52-92 23 3 41 11 56 22 7 4 15 4 22 0 7-4 7-11 7-19 0-7-14-37-114-129 0-71-11-534-523-652-3-8-59-19-133-19z m-274 97c182-97 396-52 400-52 519 122 493 603 493 626 0 3 0 11 7 14 33 30 59 56 74 75-33-8-63-12-70-12-8 0-15 4-19 12-3 7 0 14 8 22 33 26 51 48 63 63-34-15-74-22-112-22-3 0-11 3-11 3-51 52-126 71-196 56-52-15-96-48-122-93-26-48-33-100-22-152 0-3 0-11-4-14-4-4-7-8-15-8-222-18-404 156-459 215-63-141 59-248 63-252 7-4 7-11 7-18-3-8-7-12-15-12-26-3-51 4-70 15 15-140 148-170 152-174 7 0 15-7 15-15 0-7-4-14-11-18-23-11-49-11-71-8 52-111 171-111 171-111 7 0 14-3 14-11 4-7 0-15-3-18-78-93-193-108-267-111z" horiz-adv-x="1148" />

<glyph glyph-name="pin-solid" unicode="&#xe815;" d="M928 505c5-5 7-10 10-17 5-13 5-28 0-40-3-8-8-13-10-18l-15-15c-8-7-18-15-30-20-10-5-23-7-33-7h-50c-5 0-10-3-15-3-5-2-7-5-12-7l-143-143c-2-2-5-5-7-12-3-5-3-10-3-13v-50c0-10-2-22-7-32-5-13-10-20-18-28l-15-15c-5-5-10-7-17-10-5-2-13-5-20-5-8 0-13 3-20 5-5 3-13 8-18 10l-80 80-325-253c-2-2-5-2-7-5-5-2-13-2-18 0-2 0-5 3-7 5-5 5-8 10-8 18 0 7 3 12 5 17l253 328-80 80c-10 10-15 23-15 35 0 15 5 25 15 35l15 15c7 8 17 13 30 18 12 5 22 7 32 7h50c5 0 10 3 15 3 5 2 10 5 13 7l142 143c3 2 5 7 8 12 2 5 2 10 2 13v57c0 10 3 23 8 33 5 12 10 20 17 27l15 15c5 5 10 8 18 10 7 3 12 5 20 5 7 0 15-2 20-5 5-2 12-7 17-10l268-270 0 0z m-705-432l167 130-40 40-127-170 0 0z" horiz-adv-x="1000" />
</font>
</defs>
</svg>
